<svg xmlns="http://www.w3.org/2000/svg" fill="none" viewBox="0 0 866.94 198.55">
<path d="M37 110.391L48 152.391L67.5 142.391L95 150.891C100.6 153.691 109.667 151.057 113.5 149.391L170 118.891C178 105.891 168.333 102.891 162.5 102.891C162.5 102.891 136 109.891 134.5 111.391C133 112.891 128 123.209 120.5 125.391C113 127.572 99.5 126.391 99.5 126.391C95.1 121.991 97.6667 118.557 99.5 117.391C105.333 116.557 117.4 114.891 119 114.891C120.6 114.891 123 111.891 124 110.391C124.333 109.224 124.8 106.091 124 102.891C123.2 99.6906 119 97.224 117 96.3906H70C67.2 96.3906 61.5 98.724 59 99.8906L37 110.391Z" fill="#34008C"/>
<path d="M26 110.391L39.5 159.391C39.9 162.991 38.6667 165.224 38 165.891L0 185.891V118.391C6.33333 115.391 19.5 109.291 21.5 108.891C23.5 108.491 25.3333 109.724 26 110.391Z" fill="#34008C"/>
<path d="M106.5 50.387L49.9999 26.387C48.3999 25.7074 48.5 24.3906 49.9999 23.387C68.8332 16.2204 106.5 0.890741 108 0.390673C109.61 -0.146049 111.833 -0.112975 113 0.387025C131 7.38703 167.5 21.787 169.5 23.387C171.5 24.987 170.333 26.0537 169.5 26.387C151.333 34.0537 114.6 49.0885 113 49.8885C111.4 50.6885 108 50.7204 106.5 50.387Z" fill="#34008C"/>
<path d="M154.5 50.8906V31.8906L161 29V29.3906V50.8906L164 53.8906V69.8906H151.5V53.8906L154.5 50.8906Z" fill="#34008C"/>
<path d="M106.5 59.3906L77 48.3906V71.8906C82 75.8906 94.2871 81.7734 106.5 82.3906C108.645 82.499 109.855 82.5021 112 82.3906C124.028 81.7652 134 75.5573 141 71.8906V47.8906L112 59.3906C109.6 60.5906 107.333 59.8906 106.5 59.3906Z" fill="#34008C"/>
<path d="M195.784 149.445V97.0817H217.696C221.616 97.0817 225.009 97.8487 227.872 99.3828C230.753 100.9 232.977 103.031 234.545 105.775C236.114 108.519 236.898 111.698 236.898 115.312C236.898 118.977 236.097 122.164 234.494 124.874C232.892 127.585 230.616 129.681 227.668 131.164C224.736 132.647 221.276 133.388 217.287 133.388H203.889V123.11H214.781C216.622 123.11 218.165 122.795 219.409 122.164C220.67 121.516 221.625 120.604 222.273 119.428C222.938 118.252 223.27 116.88 223.27 115.312C223.27 113.727 222.938 112.363 222.273 111.221C221.625 110.079 220.67 109.201 219.409 108.587C218.148 107.957 216.605 107.641 214.781 107.641H208.901V149.445H195.784ZM255.94 97.0817V149.445H242.823V97.0817H255.94ZM311.435 116.258H298.165C298.012 114.979 297.68 113.829 297.168 112.806C296.674 111.766 296.009 110.88 295.174 110.147C294.339 109.397 293.342 108.826 292.183 108.434C291.04 108.042 289.762 107.846 288.347 107.846C285.859 107.846 283.728 108.46 281.955 109.687C280.183 110.897 278.827 112.653 277.89 114.954C276.952 117.255 276.484 120.025 276.484 123.263C276.484 126.656 276.952 129.502 277.89 131.803C278.844 134.087 280.208 135.809 281.981 136.968C283.754 138.11 285.85 138.681 288.271 138.681C289.634 138.681 290.87 138.511 291.978 138.17C293.103 137.812 294.092 137.3 294.944 136.636C295.796 135.954 296.495 135.136 297.04 134.181C297.586 133.21 297.961 132.11 298.165 130.883L311.435 130.96C311.231 133.244 310.575 135.519 309.467 137.786C308.376 140.053 306.85 142.124 304.89 143.999C302.93 145.874 300.543 147.374 297.731 148.499C294.918 149.607 291.671 150.161 287.989 150.161C283.234 150.161 278.972 149.121 275.205 147.042C271.455 144.962 268.489 141.92 266.308 137.914C264.126 133.908 263.035 129.025 263.035 123.263C263.035 117.485 264.143 112.593 266.359 108.587C268.575 104.582 271.566 101.548 275.333 99.4851C279.1 97.4055 283.319 96.3658 287.989 96.3658C291.211 96.3658 294.177 96.8089 296.887 97.6953C299.614 98.5817 302.009 99.8771 304.072 101.582C306.134 103.269 307.805 105.349 309.083 107.82C310.362 110.275 311.146 113.087 311.435 116.258ZM318.409 149.445V97.0817H331.526V118.917H332.241L349.065 97.0817H364.483L346.176 120.451L364.841 149.445H349.142L336.486 129.144L331.526 135.46V149.445H318.409ZM381.882 97.0817H396.533L407.374 118.789H407.808L418.624 97.0817H433.274L414.098 132.263V149.445H401.084V132.263L381.882 97.0817ZM484.653 123.263C484.653 129.042 483.537 133.934 481.304 137.94C479.088 141.945 476.08 144.988 472.278 147.067C468.477 149.13 464.224 150.161 459.52 150.161C454.798 150.161 450.537 149.121 446.736 147.042C442.952 144.945 439.943 141.903 437.71 137.914C435.494 133.908 434.386 129.025 434.386 123.263C434.386 117.485 435.494 112.593 437.71 108.587C439.943 104.582 442.952 101.548 446.736 99.4851C450.537 97.4055 454.798 96.3658 459.52 96.3658C464.224 96.3658 468.477 97.4055 472.278 99.4851C476.08 101.548 479.088 104.582 481.304 108.587C483.537 112.593 484.653 117.485 484.653 123.263ZM471.23 123.263C471.23 119.94 470.77 117.136 469.849 114.852C468.929 112.55 467.591 110.812 465.835 109.636C464.097 108.442 461.991 107.846 459.52 107.846C457.065 107.846 454.96 108.442 453.205 109.636C451.466 110.812 450.136 112.55 449.216 114.852C448.295 117.136 447.835 119.94 447.835 123.263C447.835 126.587 448.295 129.4 449.216 131.701C450.136 133.985 451.466 135.724 453.205 136.917C454.96 138.093 457.065 138.681 459.52 138.681C461.991 138.681 464.097 138.093 465.835 136.917C467.591 135.724 468.929 133.985 469.849 131.701C470.77 129.4 471.23 126.587 471.23 123.263ZM523.274 97.0817H536.391V130.781C536.391 134.718 535.453 138.136 533.578 141.033C531.703 143.914 529.095 146.147 525.754 147.732C522.413 149.317 518.527 150.11 514.095 150.11C509.629 150.11 505.726 149.317 502.385 147.732C499.044 146.147 496.445 143.914 494.587 141.033C492.729 138.136 491.8 134.718 491.8 130.781V97.0817H504.916V129.656C504.916 131.411 505.3 132.979 506.067 134.36C506.851 135.724 507.933 136.789 509.314 137.556C510.695 138.323 512.288 138.707 514.095 138.707C515.902 138.707 517.496 138.323 518.876 137.556C520.257 136.789 521.331 135.724 522.098 134.36C522.882 132.979 523.274 131.411 523.274 129.656V97.0817ZM543.972 149.445V97.0817H565.884C569.804 97.0817 573.196 97.7891 576.06 99.2038C578.94 100.619 581.165 102.638 582.733 105.263C584.301 107.888 585.085 111.008 585.085 114.621C585.085 118.286 584.284 121.397 582.682 123.954C581.08 126.494 578.804 128.428 575.855 129.758C572.923 131.07 569.463 131.727 565.474 131.727H551.847V121.423H562.969C564.81 121.423 566.352 121.184 567.597 120.707C568.858 120.229 569.813 119.496 570.46 118.508C571.125 117.502 571.457 116.207 571.457 114.621C571.457 113.053 571.125 111.749 570.46 110.71C569.813 109.67 568.858 108.903 567.597 108.408C566.335 107.897 564.793 107.641 562.969 107.641H557.088V149.445H543.972ZM573.81 125.488L586.875 149.445H572.557L559.798 125.488H573.81ZM626.487 149.445H606.901V97.0817H626.41C631.762 97.0817 636.381 98.13 640.268 100.227C644.154 102.306 647.146 105.306 649.242 109.227C651.356 113.13 652.413 117.8 652.413 123.238C652.413 128.692 651.356 133.38 649.242 137.3C647.146 141.221 644.154 144.229 640.268 146.326C636.398 148.406 631.805 149.445 626.487 149.445ZM620.018 138.272H626.001C628.83 138.272 631.234 137.803 633.211 136.866C635.188 135.911 636.688 134.335 637.711 132.136C638.734 129.937 639.245 126.971 639.245 123.238C639.245 119.522 638.725 116.573 637.685 114.391C636.646 112.192 635.12 110.624 633.109 109.687C631.114 108.732 628.66 108.255 625.745 108.255H620.018V138.272ZM659.495 149.445V97.0817H681.407C685.327 97.0817 688.719 97.7891 691.583 99.2038C694.464 100.619 696.688 102.638 698.256 105.263C699.825 107.888 700.609 111.008 700.609 114.621C700.609 118.286 699.808 121.397 698.205 123.954C696.603 126.494 694.327 128.428 691.379 129.758C688.447 131.07 684.987 131.727 680.998 131.727H667.37V121.423H678.492C680.333 121.423 681.876 121.184 683.12 120.707C684.381 120.229 685.336 119.496 685.984 118.508C686.648 117.502 686.981 116.207 686.981 114.621C686.981 113.053 686.648 111.749 685.984 110.71C685.336 109.67 684.381 108.903 683.12 108.408C681.859 107.897 680.316 107.641 678.492 107.641H672.612V149.445H659.495ZM689.333 125.488L702.398 149.445H688.08L675.322 125.488H689.333ZM707.308 149.445V97.0817H744.202V107.718H720.424V117.945H742.285V128.582H720.424V138.809H744.151V149.445H707.308ZM763.832 149.445H749.693L767.259 97.0817H784.875L802.44 149.445H788.301L776.259 110.633H775.849L763.832 149.445ZM761.71 128.812H790.244V138.758H761.71V128.812ZM807.854 97.0817H824.141L837.104 128.684H837.718L850.656 97.0817H866.942V149.445H854.158V117.843H853.724L841.4 149.087H833.397L821.073 117.664H820.664V149.445H807.854V97.0817Z" fill="#34008C"/>
<path d="M205.625 198H196.25V166H206.188C209.24 166 211.849 166.635 214.016 167.906C216.193 169.177 217.859 171 219.016 173.375C220.172 175.75 220.75 178.599 220.75 181.922C220.75 185.276 220.156 188.156 218.969 190.562C217.792 192.958 216.073 194.797 213.813 196.078C211.563 197.359 208.833 198 205.625 198ZM199.172 195.375H205.453C208.203 195.375 210.505 194.833 212.359 193.75C214.214 192.667 215.604 191.12 216.531 189.109C217.458 187.099 217.922 184.703 217.922 181.922C217.911 179.161 217.453 176.786 216.547 174.797C215.651 172.807 214.318 171.281 212.547 170.219C210.786 169.156 208.609 168.625 206.016 168.625H199.172V195.375ZM227.832 198V166H238.16C240.431 166 242.327 166.411 243.848 167.234C245.379 168.047 246.53 169.177 247.301 170.625C248.082 172.062 248.473 173.714 248.473 175.578C248.473 177.443 248.082 179.089 247.301 180.516C246.53 181.943 245.384 183.057 243.863 183.859C242.342 184.661 240.457 185.062 238.207 185.062H229.41V182.391H238.129C239.796 182.391 241.181 182.115 242.285 181.562C243.4 181.01 244.228 180.224 244.77 179.203C245.322 178.182 245.598 176.974 245.598 175.578C245.598 174.182 245.322 172.964 244.77 171.922C244.217 170.87 243.384 170.057 242.27 169.484C241.165 168.911 239.77 168.625 238.082 168.625H230.754V198H227.832ZM241.941 183.562L249.816 198H246.441L238.645 183.562H241.941ZM255.59 198V166H274.152V168.625H258.512V180.672H273.168V183.297H258.512V195.375H274.465V198H255.59ZM281.762 198H278.699L290.34 166H293.465L305.105 198H302.043L292.012 169.797H291.793L281.762 198ZM283.965 185.734H299.84V188.359H283.965V185.734ZM310.59 166H313.965L325.574 193.875H325.855L337.465 166H340.84V198H338.09V172.172H337.84L327.043 198H324.387L313.59 172.172H313.34V198H310.59V166ZM386.785 176H383.848C383.629 174.906 383.233 173.896 382.66 172.969C382.098 172.031 381.389 171.214 380.535 170.516C379.681 169.818 378.712 169.276 377.629 168.891C376.546 168.505 375.374 168.312 374.113 168.312C372.092 168.312 370.249 168.839 368.582 169.891C366.926 170.943 365.598 172.49 364.598 174.531C363.608 176.562 363.113 179.052 363.113 182C363.113 184.969 363.608 187.469 364.598 189.5C365.598 191.531 366.926 193.073 368.582 194.125C370.249 195.167 372.092 195.687 374.113 195.687C375.374 195.687 376.546 195.495 377.629 195.109C378.712 194.724 379.681 194.187 380.535 193.5C381.389 192.802 382.098 191.984 382.66 191.047C383.233 190.109 383.629 189.094 383.848 188H386.785C386.525 189.469 386.035 190.839 385.316 192.109C384.608 193.37 383.702 194.474 382.598 195.422C381.504 196.37 380.243 197.109 378.816 197.641C377.389 198.172 375.822 198.437 374.113 198.437C371.426 198.437 369.04 197.766 366.957 196.422C364.874 195.068 363.238 193.161 362.051 190.703C360.874 188.245 360.285 185.344 360.285 182C360.285 178.656 360.874 175.755 362.051 173.297C363.238 170.839 364.874 168.937 366.957 167.594C369.04 166.24 371.426 165.562 374.113 165.562C375.822 165.562 377.389 165.828 378.816 166.359C380.243 166.88 381.504 167.62 382.598 168.578C383.702 169.526 384.608 170.63 385.316 171.891C386.035 173.151 386.525 174.521 386.785 176ZM419.883 182C419.883 185.333 419.289 188.234 418.102 190.703C416.914 193.161 415.279 195.068 413.195 196.422C411.122 197.766 408.737 198.437 406.039 198.437C403.341 198.437 400.951 197.766 398.867 196.422C396.794 195.068 395.164 193.161 393.977 190.703C392.799 188.234 392.211 185.333 392.211 182C392.211 178.667 392.799 175.771 393.977 173.312C395.164 170.844 396.799 168.937 398.883 167.594C400.966 166.24 403.352 165.562 406.039 165.562C408.737 165.562 411.122 166.24 413.195 167.594C415.279 168.937 416.914 170.844 418.102 173.312C419.289 175.771 419.883 178.667 419.883 182ZM417.039 182C417.039 179.135 416.56 176.682 415.602 174.641C414.643 172.589 413.336 171.021 411.68 169.937C410.023 168.854 408.143 168.312 406.039 168.312C403.945 168.312 402.07 168.854 400.414 169.937C398.758 171.021 397.445 172.583 396.477 174.625C395.518 176.667 395.039 179.125 395.039 182C395.039 184.865 395.518 187.318 396.477 189.359C397.435 191.401 398.742 192.969 400.398 194.062C402.055 195.146 403.935 195.687 406.039 195.687C408.143 195.687 410.023 195.146 411.68 194.062C413.346 192.979 414.659 191.417 415.617 189.375C416.576 187.323 417.049 184.865 417.039 182ZM426.949 166H430.324L441.934 193.875H442.215L453.824 166H457.199V198H454.449V172.172H454.199L443.402 198H440.746L429.949 172.172H429.699V198H426.949V166ZM465.707 198V166H484.27V168.625H468.629V180.672H483.285V183.297H468.629V195.375H484.582V198H465.707ZM509.207 174C509.03 172.219 508.243 170.802 506.848 169.75C505.452 168.698 503.697 168.172 501.582 168.172C500.092 168.172 498.78 168.427 497.645 168.937C496.52 169.448 495.634 170.156 494.988 171.062C494.353 171.958 494.035 172.979 494.035 174.125C494.035 174.969 494.217 175.708 494.582 176.344C494.947 176.979 495.436 177.526 496.051 177.984C496.676 178.432 497.363 178.818 498.113 179.141C498.874 179.464 499.639 179.734 500.41 179.953L503.785 180.922C504.806 181.203 505.827 181.562 506.848 182C507.868 182.437 508.801 182.99 509.645 183.656C510.499 184.312 511.181 185.12 511.691 186.078C512.212 187.026 512.473 188.167 512.473 189.5C512.473 191.208 512.03 192.745 511.145 194.109C510.259 195.474 508.988 196.557 507.332 197.359C505.676 198.151 503.691 198.547 501.379 198.547C499.202 198.547 497.311 198.187 495.707 197.469C494.103 196.74 492.842 195.734 491.926 194.453C491.009 193.172 490.493 191.687 490.379 190H493.379C493.483 191.26 493.9 192.328 494.629 193.203C495.358 194.078 496.306 194.745 497.473 195.203C498.639 195.651 499.941 195.875 501.379 195.875C502.973 195.875 504.389 195.609 505.629 195.078C506.879 194.536 507.858 193.786 508.566 192.828C509.285 191.859 509.645 190.734 509.645 189.453C509.645 188.37 509.363 187.464 508.801 186.734C508.238 185.995 507.452 185.375 506.441 184.875C505.441 184.375 504.28 183.932 502.957 183.547L499.129 182.422C496.618 181.672 494.671 180.635 493.285 179.312C491.9 177.99 491.207 176.302 491.207 174.25C491.207 172.531 491.665 171.021 492.582 169.719C493.509 168.406 494.759 167.385 496.332 166.656C497.915 165.917 499.691 165.547 501.66 165.547C503.65 165.547 505.41 165.911 506.941 166.641C508.473 167.37 509.686 168.375 510.582 169.656C511.488 170.927 511.973 172.375 512.035 174H509.207ZM531.879 198V166H542.207C544.478 166 546.374 166.411 547.895 167.234C549.426 168.047 550.577 169.177 551.348 170.625C552.129 172.062 552.52 173.714 552.52 175.578C552.52 177.443 552.129 179.089 551.348 180.516C550.577 181.943 549.431 183.057 547.91 183.859C546.389 184.661 544.504 185.062 542.254 185.062H533.457V182.391H542.176C543.842 182.391 545.228 182.115 546.332 181.562C547.447 181.01 548.275 180.224 548.816 179.203C549.368 178.182 549.645 176.974 549.645 175.578C549.645 174.182 549.368 172.964 548.816 171.922C548.264 170.87 547.431 170.057 546.316 169.484C545.212 168.911 543.816 168.625 542.129 168.625H534.801V198H531.879ZM545.988 183.562L553.863 198H550.488L542.691 183.562H545.988ZM559.637 198V166H578.199V168.625H562.559V180.672H577.215V183.297H562.559V195.375H578.512V198H559.637ZM585.809 198H582.746L594.387 166H597.512L609.152 198H606.09L596.059 169.797H595.84L585.809 198ZM588.012 185.734H603.887V188.359H588.012V185.734ZM614.637 198V166H617.559V195.375H632.809V198H614.637ZM642.309 166V198H639.387V166H642.309ZM648.879 168.625V166H672.082V168.625H661.941V198H659.02V168.625H648.879ZM675.66 166H679.035L688.52 181.187H688.801L698.285 166H701.66L690.113 184.141V198H687.207V184.141L675.66 166Z" fill="#34008C"/>
</svg>